<svg width="371" height="393" viewBox="0 0 371 393" fill="none" xmlns="http://www.w3.org/2000/svg">
<g clip-path="url(#clip0_16:49)">
<path d="M0.36084 118.449L110.795 0H172.869H215.454L286.19 74.1287H137.501L96.3589 118.449L68.2091 146.296V252.195L137.501 315.341H239.634L327.332 227.485H239.634H147.606L206.793 172.575H365.226V284.749L312.896 338.482L260.566 392.216H250.822H110.795L0.36084 284.749V118.449Z" fill="#047CD2"/>
<path d="M138.944 73.7365L216.26 1.56885L285.107 73.7365H138.944Z" fill="#0061AE"/>
<path d="M110.447 0.392334H216.898L66.4863 146.689L0 118.057L110.447 0.392334Z" fill="#036BC8"/>
<path d="M67.1264 146.689L0.72168 118.057V283.964L67.1264 251.802V146.689Z" fill="#1176D0"/>
<path d="M201.605 392.216L243.243 314.776H138.783L68.6569 253.371L0.72168 284.66L112.121 392.216H201.605Z" fill="#1884E4"/>
<path d="M242.97 310.254L299.265 239.898V356.425L262.969 396H200.379L242.97 310.254Z" fill="#1C95DC"/>
<path d="M148 236.814L204.3 167L369.525 168.569V288.979L298.163 357.225V236.814H231.728H148Z" fill="#1F9CE6"/>
<path d="M136.418 242.389L194.774 166.299H371L295.254 242.389H136.418Z" fill="#45ADF0"/>
</g>
<defs>
<clipPath id="clip0_16:49">
<rect width="371" height="393" fill="white"/>
</clipPath>
</defs>
</svg>
