<svg width="1258" height="422" viewBox="0 0 1258 422" fill="none" xmlns="http://www.w3.org/2000/svg">
<g clip-path="url(#clip0_16:15)">
<path d="M0.36084 118.449L110.795 0H172.869H215.454L286.19 74.1287H137.501L96.3589 118.449L68.2091 146.296V252.195L137.501 315.341H239.634L327.332 227.485H239.634H147.606L206.793 172.575H365.226V284.749L312.896 338.482L260.566 392.216H250.822H110.795L0.36084 284.749V118.449Z" fill="#047CD2"/>
<path d="M138.945 73.7365L216.26 1.56885L285.107 73.7365H138.945Z" fill="#0061AE"/>
<path d="M110.447 0.392334H216.898L66.4863 146.689L0 118.057L110.447 0.392334Z" fill="#036BC8"/>
<path d="M67.1264 146.689L0.72168 118.057V283.964L67.1264 251.802V146.689Z" fill="#1176D0"/>
<path d="M201.605 392.216L243.243 314.776H138.783L68.6569 253.371L0.72168 284.66L112.121 392.216H201.605Z" fill="#1884E4"/>
<path d="M242.97 310.254L299.265 239.898V356.425L262.969 396H200.379L242.97 310.254Z" fill="#1C95DC"/>
<path d="M148 236.814L204.3 167L369.525 168.569V288.979L298.163 357.225V236.814H231.728H148Z" fill="#1F9CE6"/>
<path d="M136.418 242.389L194.773 166.299H371L295.254 242.389H136.418Z" fill="#45ADF0"/>
</g>
<path d="M463 333V132.9H424.9V333H463ZM637.879 333V239.4C637.879 197.7 607.579 184.5 574.579 184.5C551.779 184.5 528.979 191.7 511.279 207.3L525.679 232.8C537.979 221.4 552.379 215.7 567.979 215.7C587.179 215.7 599.779 225.3 599.779 240V259.5C590.179 248.1 573.079 241.8 553.879 241.8C530.779 241.8 503.479 254.7 503.479 288.6C503.479 321 530.779 336.6 553.879 336.6C572.779 336.6 589.879 329.7 599.779 318V333H637.879ZM569.179 310.8C554.179 310.8 541.879 303 541.879 289.5C541.879 275.4 554.179 267.6 569.179 267.6C581.479 267.6 593.479 271.8 599.779 280.2V298.2C593.479 306.6 581.479 310.8 569.179 310.8ZM739.87 336.6C780.07 336.6 802.57 316.5 802.57 290.1C802.57 231.6 716.77 249.6 716.77 228C716.77 219.9 725.77 213.6 739.57 213.6C757.27 213.6 773.77 221.1 782.47 230.4L797.77 204.3C783.37 192.9 763.87 184.5 739.27 184.5C701.17 184.5 679.87 205.8 679.87 230.1C679.87 287.1 765.97 267.6 765.97 291.6C765.97 300.6 758.17 307.2 741.67 307.2C723.67 307.2 702.07 297.3 691.57 287.4L675.07 314.1C690.37 328.2 714.67 336.6 739.87 336.6ZM978.538 333V230.7C978.538 202.5 963.238 184.5 931.438 184.5C907.738 184.5 890.038 195.9 880.738 207V188.1H842.638V333H880.738V235.5C887.038 226.8 898.738 218.4 913.738 218.4C929.938 218.4 940.438 225.3 940.438 245.4V333H978.538ZM1047.27 172.5C1059.87 172.5 1070.07 162.3 1070.07 149.7C1070.07 137.1 1059.87 127.2 1047.27 127.2C1034.97 127.2 1024.47 137.1 1024.47 149.7C1024.47 162.3 1034.97 172.5 1047.27 172.5ZM1066.47 333V188.1H1028.37V333H1066.47ZM1257.85 333L1198.75 253.8L1256.05 188.1H1209.25L1154.35 252.6V132.9H1116.25V333H1154.35V295.8L1171.75 277.2L1210.15 333H1257.85Z" fill="white"/>
<defs>
<clipPath id="clip0_16:15">
<rect width="371" height="393" fill="white"/>
</clipPath>
</defs>
</svg>
